# xmcd CD database file
#
# Track frame offsets:
#	150
#	110184
#	197596
#
# Disc length: 3965 seconds
#
# Revision: 0
# Processed by: cddbd v1.5.2PL0 Copyright (c) Steve Scherf et al.
# Submitted via: CDex 1.51
#
DISCID=250f7b03
DTITLE=Andrey Klimkovsky - DreamOcean - 3 - Dreamology
DYEAR=2006
DGENRE=New Age
TTITLE0=Dreamology - part I
TTITLE1=Dreamology - part II
TTITLE2=Dreamology - part III
EXTD=YEAR: 2006
EXTT0=
EXTT1=
EXTT2=
PLAYORDER=
